<svg width="20" height="21" viewBox="0 0 20 21" fill="none" xmlns="http://www.w3.org/2000/svg">
<path fill-rule="evenodd" clip-rule="evenodd" d="M14.0137 19.9999H5.66592C2.59955 19.9999 0.247152 18.8924 0.915344 14.4347L1.69338 8.39351C2.10528 6.16925 3.52404 5.31799 4.76889 5.31799H14.9474C16.2105 5.31799 17.5469 6.23332 18.0229 8.39351L18.8009 14.4347C19.3684 18.3889 17.0801 19.9999 14.0137 19.9999Z" stroke="currentColor" stroke-width="1.5" stroke-linecap="round" stroke-linejoin="round"/>
<path d="M14.151 5.09836C14.151 2.71229 12.2167 0.777993 9.83068 0.777993V0.777993C8.68168 0.773124 7.57807 1.22615 6.76388 2.03691C5.94969 2.84766 5.49199 3.94935 5.492 5.09836H5.492" stroke="currentColor" stroke-width="1.5" stroke-linecap="round" stroke-linejoin="round"/>
<path d="M12.7963 9.60183H12.7506" stroke="currentColor" stroke-width="1.5" stroke-linecap="round" stroke-linejoin="round"/>
<path d="M6.96569 9.60183H6.91992" stroke="currentColor" stroke-width="1.5" stroke-linecap="round" stroke-linejoin="round"/>
</svg>
